<svg width="16" height="17" viewBox="0 0 16 17" fill="none" xmlns="http://www.w3.org/2000/svg">
<path fill-rule="evenodd" clip-rule="evenodd" d="M10 0L6 4V16.828L10 12.828V0ZM1.707 1.707C1.56715 1.56719 1.38898 1.47198 1.19503 1.43342C1.00108 1.39485 0.800045 1.41465 0.617345 1.49032C0.434646 1.56599 0.278483 1.69413 0.168598 1.85854C0.0587141 2.02295 4.22243e-05 2.21625 0 2.414V12.414C5.66374e-05 12.6792 0.105451 12.9335 0.293 13.121L4 16.828V4L1.707 1.707ZM15.707 3.707L12 0V12.828L14.293 15.121C14.4329 15.2608 14.611 15.356 14.805 15.3946C14.9989 15.4332 15.2 15.4133 15.3827 15.3377C15.5654 15.262 15.7215 15.1339 15.8314 14.9695C15.9413 14.805 16 14.6117 16 14.414V4.414C15.9999 4.14881 15.8946 3.89449 15.707 3.707Z" fill="#FFD35C"/>
</svg>
